     <svg
              width="100%"
              height="100%"
              viewBox="0 0 69 85"
              fill="none"
              xmlns="http://www.w3.org/2000/svg"
            >
              <path
                d="M47.284 0H11.768C5.49103 0 0.384033 5.107 0.384033 11.384V73.212C0.384033 79.489 5.49103 84.596 11.768 84.596H56.83C63.106 84.596 68.213 79.49 68.213 73.212V23.392L47.284 0ZM48.942 10.853L58.503 21.539H48.942V10.853ZM56.828 78.596H11.768C8.79903 78.596 6.38403 76.181 6.38403 73.212V11.384C6.38403 8.415 8.79903 6 11.768 6H42.943V27.538H62.213V73.212C62.212 76.181 59.797 78.596 56.828 78.596Z"
                fill="black"
              />
            </svg>